<svg xmlns="http://www.w3.org/2000/svg" width="100%" height="100%" viewBox="0 0 200 300">

    <defs>
        <pattern id="img1" patternUnits="userSpaceOnUse" width="100%" height="100%">
            <image xlink:href="https://img-fotki.yandex.ru/get/5607/5091629.6b/0_612e6_b9039c0d_M.jpg"  width="200" height="300" />
        </pattern>
    </defs>

    <g>
        <path fill="url(#img1)" d="m7.998034,57.334694l0,0c16.845012,0 30.500581,-20.296814 30.500581,-45.334209l121.998638,0l0,0c0,25.03738 13.655563,45.334209 30.500702,45.334209l0,181.331383l0,0c-16.845139,0 -30.500702,20.296753 -30.500702,45.334412l-121.998638,0c0,-25.037659 -13.655577,-45.334412 -30.500581,-45.334412l0,-181.331383z">
        </path>
        <path d="m14.664705,60.890213l0,0c15.617687,0 28.278315,-19.500862 28.278315,-43.556398l113.109852,0l0,0c0,24.055521 12.660614,43.556398 28.278412,43.556398l0,174.220352l0,0c-15.617798,0 -28.278412,19.500809 -28.278412,43.55658l-113.109852,0c0,-24.055771 -12.660635,-43.55658 -28.278315,-43.55658l0,-174.220352z" stroke="#ffffff" fill="transparent"/>
    </g>
</svg>