<svg xmlns="http://www.w3.org/2000/svg" viewBox="0 0 512 512" fill="#2cc0a7">
    <path d="M354 64h-54v-2.574c0-15.977-12.996-28.977-28.977-28.977H252.48C244.02 13.016 224.64 0 202.965 0h-1.93C179.36 0 159.98 13.016 151.52 32.45h-18.543c-15.98 0-28.977 13-28.977 28.976V64H50C18.691 64 0 78.953 0 104v358c0 27.57 22.43 50 50 50h304c27.57 0 50-22.43 50-50V235.668c0-5.523-4.477-10-10-10s-10 4.477-10 10V462c0 16.543-13.457 30-30 30H50c-16.543 0-30-13.457-30-30V104c0-4.945 0-20 30-20h54v14c0 5.523 4.477 10 10 10h176c5.523 0 10-4.477 10-10V84h54c16.543 0 30 13.457 30 30v33.668c0 5.523 4.477 10 10 10s10-4.477 10-10V114c0-27.57-22.43-50-50-50zm-74 24H124V61.426c0-4.95 4.027-8.977 8.977-8.977h25.601c4.516 0 8.469-3.023 9.652-7.379C172.234 30.31 185.727 20 201.035 20h1.93c15.308 0 28.8 10.309 32.808 25.07a9.996 9.996 0 0 0 9.649 7.38h25.605c4.95 0 8.973 4.027 8.973 8.976zm0 0"/>
    <path d="M394 179.512c-2.629 0-5.21 1.058-7.07 2.918a10.1 10.1 0 0 0-2.93 7.07c0 2.64 1.07 5.21 2.93 7.078 1.86 1.863 4.441 2.934 7.07 2.934s5.21-1.07 7.07-2.934A10.077 10.077 0 0 0 404 189.5c0-2.629-1.07-5.21-2.93-7.07a10.068 10.068 0 0 0-7.07-2.918zm0 0M502 322a10.08 10.08 0 0 0-7.07 2.93c-1.86 1.86-2.93 4.441-2.93 7.07s1.07 5.21 2.93 7.07c1.86 1.86 4.441 2.93 7.07 2.93s5.21-1.07 7.07-2.93c1.86-1.86 2.93-4.441 2.93-7.07s-1.07-5.21-2.93-7.07A10.08 10.08 0 0 0 502 322zm0 0"/>
    <path d="M511.129 185.422l-32-71.508C477.516 110.316 473.94 108 470 108s-7.516 2.316-9.129 5.914l-32 71.508a9.992 9.992 0 0 0-.871 4.082v298.621C428 501.289 438.71 512 451.875 512h36.25C501.289 512 512 501.29 512 488.125V375.668c0-5.523-4.477-10-10-10s-10 4.477-10 10v69.918h-44V199.504h44V291.8c0 5.523 4.477 10 10 10s10-4.477 10-10V189.504c0-1.406-.297-2.8-.871-4.082zM470 142.48l16.57 37.024h-33.14zm22 323.106v22.539a3.88 3.88 0 0 1-3.875 3.875h-36.25a3.88 3.88 0 0 1-3.875-3.875v-22.54zm0 0M117.668 144c-23.16 0-42 18.84-42 42s18.84 42 42 42c23.156 0 42-18.84 42-42s-18.844-42-42-42zm0 64c-12.133 0-22-9.867-22-22s9.867-22 22-22c12.129 0 22 9.867 22 22s-9.871 22-22 22zm0 0M117.668 264c-23.16 0-42 18.84-42 42s18.84 42 42 42c23.156 0 42-18.84 42-42s-18.844-42-42-42zm0 64c-12.133 0-22-9.867-22-22s9.867-22 22-22c12.129 0 22 9.867 22 22s-9.871 22-22 22zm0 0M117.668 384c-23.16 0-42 18.84-42 42s18.84 42 42 42c23.156 0 42-18.84 42-42s-18.844-42-42-42zm0 64c-12.133 0-22-9.867-22-22s9.867-22 22-22c12.129 0 22 9.867 22 22s-9.871 22-22 22zm0 0M318.332 208H203.668c-5.523 0-10 4.477-10 10s4.477 10 10 10h114.668c5.52 0 10-4.477 10-10s-4.48-10-10.004-10zm0 0M318.332 160H203.668c-5.523 0-10 4.477-10 10s4.477 10 10 10h114.668c5.52 0 10-4.477 10-10s-4.48-10-10.004-10zm0 0M318.332 328H203.668c-5.523 0-10 4.477-10 10s4.477 10 10 10h114.668c5.52 0 10-4.477 10-10s-4.48-10-10.004-10zm0 0M318.332 280H203.668c-5.523 0-10 4.477-10 10s4.477 10 10 10h114.668c5.52 0 10-4.477 10-10s-4.48-10-10.004-10zm0 0M318.332 448H203.668c-5.523 0-10 4.477-10 10s4.477 10 10 10h114.668c5.52 0 10-4.477 10-10s-4.48-10-10.004-10zm0 0M318.332 400H203.668c-5.523 0-10 4.477-10 10s4.477 10 10 10h114.668c5.52 0 10-4.477 10-10s-4.48-10-10.004-10zm0 0"/>
</svg>
