<svg xmlns="http://www.w3.org/2000/svg" viewBox="0 0 512 512">
    <path d="M437.019 74.981C388.667 26.628 324.38 0 256 0S123.333 26.628 74.981 74.981C26.628 123.333 0 187.62 0 256s26.628 132.667 74.981 181.019C123.333 485.372 187.62 512 256 512s132.667-26.628 181.019-74.981C485.372 388.667 512 324.38 512 256s-26.628-132.667-74.981-181.019zM256 492C125.869 492 20 386.131 20 256S125.869 20 256 20s236 105.869 236 236-105.869 236-236 236z"/>
    <path d="M408.735 103.265C367.938 62.468 313.696 40 256 40c-57.696 0-111.938 22.468-152.735 63.265S40 198.304 40 256s22.468 111.938 63.265 152.735S198.304 472 256 472s111.938-22.468 152.735-63.265C449.532 367.938 472 313.696 472 256c0-57.696-22.468-111.938-63.265-152.735zM266 451.747V402c0-5.523-4.477-10-10-10s-10 4.477-10 10v49.747C145.866 446.69 65.31 366.134 60.253 266H110c5.523 0 10-4.477 10-10s-4.477-10-10-10H60.253C65.31 145.866 145.866 65.31 246 60.253V110c0 5.523 4.477 10 10 10s10-4.477 10-10V60.253C366.134 65.31 446.69 145.866 451.747 246H402c-5.523 0-10 4.477-10 10s4.477 10 10 10h49.747C446.69 366.134 366.134 446.69 266 451.747z"/>
    <path d="M290.939 211.225c-2.617-.002-5.233.919-7.069 2.765l-14.942 14.943A29.816 29.816 0 0 0 256 226a29.819 29.819 0 0 0-12.927 2.932l-78.003-78.003c-3.859-3.859-10.289-3.851-14.14 0-3.9 3.9-3.9 10.24 0 14.14l78.003 78.003A29.813 29.813 0 0 0 226 256c0 16.542 13.458 30 30 30s30-13.458 30-30c0-4.625-1.054-9.008-2.931-12.924l14.94-14.936c3.818-3.817 3.796-10.353.001-14.149-1.84-1.842-4.457-2.764-7.071-2.766zM256 266c-5.514 0-10-4.486-10-10s4.486-10 10-10 10 4.486 10 10-4.486 10-10 10z"/>
    <circle cx="319" cy="193" r="10"/>
</svg>
