<svg xmlns="http://www.w3.org/2000/svg" width="511pt" height="511pt" viewBox="-45 1 511 511.9995">
    <path d="M420.5 90a9.996 9.996 0 0 0-8.355-9.863l-21.36-3.563C327.828 66.082 267.563 40.297 216.5 2a9.996 9.996 0 0 0-12 0C153.438 40.297 93.172 66.082 30.215 76.574l-21.36 3.563A9.996 9.996 0 0 0 .5 90v76c0 103.566 29.688 202 102.898 275.813 51.082 51.496 101.782 68.949 103.915 69.664a9.877 9.877 0 0 0 3.187.523 10.02 10.02 0 0 0 3.188-.523c2.132-.715 52.832-18.168 103.91-69.664C390.824 367.988 420.5 269.547 420.5 166zm-20 76c0 108.293-32.434 196.113-96.398 261.02-40.73 41.332-82.016 59.68-93.602 64.292-11.602-4.62-52.879-22.972-93.602-64.292C52.934 362.113 20.5 274.293 20.5 166V98.469l13.004-2.164c63.652-10.61 124.687-36.11 176.996-73.89 52.309 37.78 113.34 63.28 176.996 73.89l13.004 2.164zm0 0"/>
    <path d="M54.3 225.25c3.641-1.5 6.2-5.082 6.2-9.25 0-4.941-3.59-9.05-8.3-9.852a9.748 9.748 0 0 0-1.7-.148c-5.52 0-10 4.48-10 10s4.48 10 10 10a10.05 10.05 0 0 0 3.8-.75zm0 0"/>
    <path d="M372.414 113.895c-55.14-10.758-109.242-32.704-156.453-63.473a9.999 9.999 0 0 0-10.922 0c-47.707 31.11-100.348 52.465-156.465 63.476a9.996 9.996 0 0 0-8.074 9.813s.031 49.238.102 52.5c.113 5.45 4.566 9.789 9.996 9.789.07 0 .14 0 .21-.004 5.524-.113 9.907-4.687 9.79-10.207-.067-3.117-.098-43.926-.098-43.926 53.508-11.468 103.902-32.023 150.004-61.183 45.703 28.855 97.27 49.886 149.996 61.191V166c0 149.883-73.777 245.691-150.047 282.11-62.582-29.965-120.715-100.505-141.187-195.243-1.168-5.398-6.485-8.824-11.891-7.66-5.395 1.164-8.828 6.488-7.66 11.887C72.325 361.71 138.52 438.289 206.418 468.27a10.015 10.015 0 0 0 8.117-.016C301.027 429.652 380.5 324.355 380.5 166v-42.29c0-4.788-3.39-8.901-8.086-9.815zm0 0"/>
    <path d="M210.5 246c-16.543 0-30 13.457-30 30s13.457 30 30 30 30-13.457 30-30-13.457-30-30-30zm0 40c-5.516 0-10-4.488-10-10 0-5.516 4.484-10 10-10s10 4.484 10 10c0 5.512-4.488 10-10 10zm0 0"/>
    <path d="M210.5 146c-27.57 0-50 22.43-50 50v10h-10c-5.523 0-10 4.477-10 10v120c0 5.523 4.477 10 10 10h120c5.523 0 10-4.477 10-10V216c0-5.523-4.477-10-10-10h-10v-10c0-27.57-22.43-50-50-50zm-30 50c0-16.543 13.457-30 30-30s30 13.457 30 30v10h-60zm80 130h-100V226h100zm0 0"/>
</svg>
