<?xml version="1.0" encoding="utf-8"?>
<!-- Generator: Adobe Illustrator 22.1.0, SVG Export Plug-In . SVG Version: 6.00 Build 0)  -->
<svg version="1.1" id="Слой_2" xmlns="http://www.w3.org/2000/svg" xmlns:xlink="http://www.w3.org/1999/xlink" x="0px" y="0px"
	 viewBox="0 0 1312.6 562.7" style="enable-background:new 0 0 1312.6 562.7;" xml:space="preserve">
<style type="text/css">
	.st0{fill:#FFFFFF;}
</style>
<g>
	<g>
		<path class="st0" d="M300.7,463.2h-10.6v23.9h8.9c9.7,0,14.3-4.9,14.3-11.9C313.4,468.9,310.2,463.2,300.7,463.2z"/>
	</g>
	<g>
		<path class="st0" d="M407.9,463.2h-12.3v24h10.7c9.7,0,14.3-4.9,14.3-12C420.6,468.9,417.3,463.2,407.9,463.2z"/>
	</g>
	<g>
		<path class="st0" d="M1031.3,0C925.3,0,833,58.6,785,145.2V60.1H605v-60H480v60H245v-60H120v60H30v125h90v87.5
			c0,11.9-7.3,26.6-19.1,38.4c-11.8,11.8-26.5,19.1-38.4,19.1H50H0l0,232.5h815V461.3c51.6,62,129.3,101.4,216.3,101.4
			c155.4,0,281.4-126,281.4-281.4C1312.6,126,1186.7,0,1031.3,0z M252.4,297c-14.6-25.9-22.4-55.3-22.4-85v-41.9h175V212
			c0,29.7-7.7,59.1-22.4,85c-10.8,19.1-25.2,36-42.3,49.7l69.4,41.6l-12.9,21.4l-79.3-47.6l-79.3,47.6l-12.9-21.4l69.4-41.6
			C277.6,333,263.2,316.1,252.4,297z M62.3,512.6H50v-60h12.3V512.6z M140.6,512.6h-6l-35.8-37.8v37.8H86.6v-60h6l35.7,37.8v-37.8
			h12.3V512.6z M190,489.4h-27.4v-10.1H190V489.4z M195,272.6c0,66.9-65.6,132.5-132.5,132.5H50v-25h12.5
			c53.2,0,107.5-54.3,107.5-107.5V135.1H80v-25h90v-60h25v60h210v25H195V272.6z M233.4,513.4c-10.2,0-15.4-0.9-24.9-5.7l4.4-9.4
			c7.9,3.8,13.4,4.6,20.9,4.6c6.6,0,10.5-2.4,10.5-6.8c0-4.1-4-5.9-12.8-7.9c-12.3-2.8-22.3-6.3-22.3-18.1c0-10.6,8.4-18,22.1-18
			c9.1,0,17.1,2.3,23,4.9l-4.9,9.7c-5.3-2.2-12.7-4-18.3-4c-6.1,0-9.5,2.7-9.5,6.5c0,4.3,4.3,6,13.3,8.1c12.9,2.9,21.8,7,21.8,18
			C256.6,506.6,247.4,513.4,233.4,513.4z M300.3,497.2h-10.1v15.4H278v-60h24.7c17.5,0,23.5,10.4,23.5,21.6
			C326.2,490.7,315.5,497.2,300.3,497.2z M359,512.6h-12.3v-60H359V512.6z M420.6,512.6L409,497.1c-0.7,0.1-1.5,0.1-2.3,0.1h-11.1
			v15.4h-12.2v-60h26.5c17.5,0,23.5,10.4,23.5,21.6c0,10.3-4.3,17.1-12.2,20.5l14,17.9H420.6z M440,110.1h25v295h-25V110.1z
			 M500.2,512.6l-5.4-12.2H468l-5.4,12.2h-12.9l28.6-60h6l28.7,60H500.2z M570.3,463.2h-19.2v49.5h-12.3v-49.5h-19.1v-10.6h50.5
			V463.2z M603.5,512.6h-12.3v-60h12.3V512.6z M657.3,513.3c-17.6,0-31.9-13.7-31.9-30.6s14.3-30.6,31.9-30.6
			c17.7,0,31.9,13.7,31.9,30.6S675,513.3,657.3,513.3z M765,512.6h-6l-35.8-37.8v37.8H711v-60h6l35.7,37.8v-37.8H765V512.6z
			 M765,405.1h-26.5c-24.6,0-47.9-7.8-69.1-23.3c-18.1-13.2-34.7-31.5-50.7-56.1c-26.9-41.4-47.2-93.7-63.6-137.2v216.6h-25v-270
			h-30v-25h30v-60h25v60h180v25H561.3c4.6,11.5,9.4,24.2,14.4,37.4c33,87.6,78.2,207.6,162.8,207.6H765V405.1z M749.9,281.4
			c0,16.6,1.5,32.9,4.2,48.7h-15.6c-5.6,0-14.5-1-26.3-10c-10.6-8-21.4-20.7-32.2-37.8c-17.9-28.1-32.7-63.2-46-97.3h132.8
			C755.9,215.1,749.9,247.6,749.9,281.4z M819.2,374.9l-5.1-13.9c-18.6-50.5-18.8-106.4-0.6-157.4c18.4-51.6,54.7-95.1,102.2-122.5
			c23.7-13.7,49.3-23,76-27.6l14.6-2.5l0,208.8l-25,0l0-178.5c-18.5,4.6-36.4,11.9-53.1,21.5C885.8,127.2,853.4,166,837,212
			c-14.5,40.7-15.9,85-4.1,126.2l70.2-40.6l12.5,21.7L819.2,374.9z M1208.8,429.6c-17.4,20.8-38.2,38.3-61.9,52
			c-35.4,20.4-75.3,31-115.7,31c-13.8,0-27.7-1.2-41.5-3.8c-53.2-9.7-101.5-37.9-136-79.2l-9.5-11.4L1025,313.8l12.5,21.7
			l-154.6,89.3c29.8,30.8,68.8,51.7,111.3,59.5c48,8.8,97.8,0.2,140.2-24.3c16.8-9.7,31.9-21.5,45.2-35.2l-70.3-40.6l12.5-21.7
			l96.5,55.7L1208.8,429.6z M1243.3,374.9l-180.8-104.4l12.5-21.7l154.5,89.2c15.4-53.7,8.5-111.2-19.7-159.9
			c-28.1-48.7-74.5-83.5-128.6-97v81.1h-25V51l14.6,2.6c67.7,11.8,126.3,52.7,160.6,112.2c34.3,59.5,40.5,130.6,16.9,195.2
			L1243.3,374.9z"/>
	</g>
	<g>
		<path class="st0" d="M657.3,463.4c-10.7,0-19.4,8.7-19.4,19.2c0,10.6,8.7,19.2,19.4,19.2s19.5-8.6,19.5-19.2
			C676.7,472.1,668,463.4,657.3,463.4z"/>
	</g>
	<g>
		<polygon class="st0" points="472.3,490.3 490.4,490.3 481.3,470.5 		"/>
	</g>
	<g>
		<path class="st0" d="M317.5,332.6c17.8-12.5,32.6-28.9,43.4-47.9c12.5-22.1,19.1-47.3,19.1-72.7v-16.9H255V212
			c0,25.4,6.6,50.6,19.1,72.7C284.9,303.7,299.7,320,317.5,332.6z"/>
	</g>
</g>
</svg>
