<svg xmlns="http://www.w3.org/2000/svg" width="15" height="24" viewBox="0 0 15 24">
  <metadata><?xpacket begin="﻿" id="W5M0MpCehiHzreSzNTczkc9d"?>
<x:xmpmeta xmlns:x="adobe:ns:meta/" x:xmptk="Adobe XMP Core 5.6-c138 79.159824, 2016/09/14-01:09:01        ">
   <rdf:RDF xmlns:rdf="http://www.w3.org/1999/02/22-rdf-syntax-ns#">
      <rdf:Description rdf:about=""/>
   </rdf:RDF>
</x:xmpmeta>
                                                                                                    
                                                                                                    
                                                                                                    
                                                                                                    
                                                                                                    
                                                                                                    
                                                                                                    
                                                                                                    
                                                                                                    
                                                                                                    
                                                                                                    
                                                                                                    
                                                                                                    
                                                                                                    
                                                                                                    
                                                                                                    
                                                                                                    
                                                                                                    
                                                                                                    
                                                                                                    
                           
<?xpacket end="w"?></metadata>
<defs>
    <style>
      .cls-1 {
        fill: #999;
        fill-rule: evenodd;
      }
    </style>
  </defs>
  <path class="cls-1" d="M174.562,1949.4l-0.046-.1c0-.03.008-0.05,0.024-0.05s0.022-.01.022-0.05a4.813,4.813,0,0,0,1.341-.78,2.535,2.535,0,0,0,.832-1.42l0.023-.17a1.772,1.772,0,0,1,.069-0.31v-12.76a2.1,2.1,0,0,0-.254-0.98,3.62,3.62,0,0,0-.647-0.88,3.993,3.993,0,0,0-.878-0.66,1.875,1.875,0,0,0-.9-0.27H165.5a2.075,2.075,0,0,0-.9.25,3.354,3.354,0,0,0-.878.63,3.62,3.62,0,0,0-.647.88,2.039,2.039,0,0,0-.254.93v12.95a1.846,1.846,0,0,0,.138.69,3.041,3.041,0,0,0,.37.66,4.615,4.615,0,0,0,.509.58,2.509,2.509,0,0,0,.554.42c0.093,0.03.239,0.09,0.439,0.17a0.606,0.606,0,0,1,.3.17l-2.662,4.24a0.924,0.924,0,0,0,.726,1.43h0a0.857,0.857,0,0,0,.716-0.4l2.329-3.56h7.118l2.329,3.56a0.857,0.857,0,0,0,.716.4h0.008a0.925,0.925,0,0,0,.727-1.43Zm-6.794-17.3a0.446,0.446,0,0,1,.116-0.29,0.324,0.324,0,0,1,.254-0.15h3.328a0.422,0.422,0,0,1,.185.1,0.254,0.254,0,0,1,.138.19v1.37a0.288,0.288,0,0,1-.115.24,0.32,0.32,0,0,1-.208.1h-3.328a0.375,0.375,0,0,1-.139-0.1,0.307,0.307,0,0,1-.138-0.14,0.3,0.3,0,0,1-.093-0.2v-1.12Zm-3.328,3.71a1.844,1.844,0,0,1,.093-0.54,4.341,4.341,0,0,1,.323-0.48,1.276,1.276,0,0,1,.393-0.35,1.127,1.127,0,0,1,.532-0.14h8.042a1.133,1.133,0,0,1,.462.14,2.8,2.8,0,0,1,.416.3,0.855,0.855,0,0,1,.278.39,0.82,0.82,0,0,1,.138.49v2.88a0.837,0.837,0,0,1-.138.46,2.614,2.614,0,0,1-.324.42,1.68,1.68,0,0,1-.462.29,0.924,0.924,0,0,1-.462.1h-7.9a1.165,1.165,0,0,1-.139-0.02,0.267,0.267,0,0,1-.138-0.08,1.1,1.1,0,0,1-.786-0.46,1.447,1.447,0,0,1-.324-0.9v-2.5Zm2.381,11.29a1.253,1.253,0,0,1-.994.44,1.188,1.188,0,0,1-.971-0.44,1.6,1.6,0,0,1-.369-1.07,1.427,1.427,0,0,1,.393-1.01,1.274,1.274,0,0,1,.947-0.41,1.352,1.352,0,0,1,.994.39,1.381,1.381,0,0,1,.393,1.03A1.544,1.544,0,0,1,166.821,1947.1Zm5.916,0a1.544,1.544,0,0,1-.393-1.07,1.342,1.342,0,0,1,.416-1.03,1.374,1.374,0,0,1,.971-0.39,1.255,1.255,0,0,1,.97.41,1.48,1.48,0,0,1,.37,1.01,1.6,1.6,0,0,1-.37,1.07,1.186,1.186,0,0,1-.97.44A1.253,1.253,0,0,1,172.737,1947.1Z" transform="translate(-162.312 -1930.97)"/>
</svg>
