<svg width="144.083" height="144" viewBox="0 25 150 95" xmlns="http://www.w3.org/2000/svg" xmlns:svg="http://www.w3.org/2000/svg">
    <g>
        <title>Layer 1</title>
        <path fill="#ffffff" stroke="#ffffff" d="m80.135,37.471l-69.055,0l0,6l69.055,0c6.523,0 14.422,2.943 22.053,7.146c-3.904,0.983 -6.807,4.514 -6.807,8.719l0,7.664c0,4.963 4.037,9 9,9l22.658,0c1.348,0 2.654,-0.301 3.84,-0.86c0.482,0.966 0.75,1.819 0.75,2.518l0,1c0,7.15 -5.816,12.967 -12.967,12.967l-107.582,0l0,6l8.73,0c0.146,1.794 0.729,3.463 1.645,4.905l-10.375,0l0,6l115.061,0l0,-6l-17.631,0c0.916,-1.442 1.498,-3.111 1.645,-4.905l9.986,0l0,-0.075c9.768,-0.759 17.488,-8.933 17.488,-18.892l0,-1c0,-12.795 -36.095,-40.187 -57.494,-40.187zm46.905,32.529l-22.658,0c-1.654,0 -3,-1.346 -3,-3l0,-7.665c0,-1.654 1.346,-3 3,-3l6.99,0c6.453,4.49 12.121,9.448 15.813,13.649c-0.05,0.002 -0.097,0.016 -0.145,0.016zm-96.431,31.586c-2.369,0 -4.338,-1.712 -4.755,-3.962l9.508,0c-0.416,2.25 -2.384,3.962 -4.753,3.962zm15.686,0c-2.369,0 -4.338,-1.712 -4.755,-3.962l9.508,0c-0.416,2.25 -2.385,3.962 -4.753,3.962zm9.153,0.943c0.915,-1.442 1.498,-3.111 1.644,-4.905l15.782,0c0.145,1.794 0.729,3.463 1.645,4.905l-19.071,0zm28.224,-0.943c-2.369,0 -4.338,-1.712 -4.756,-3.962l9.508,0c-0.416,2.25 -2.384,3.962 -4.752,3.962zm15.686,0c-2.369,0 -4.338,-1.712 -4.756,-3.962l9.508,0c-0.416,2.25 -2.385,3.962 -4.752,3.962z" id="svg_1"/>
        <path fill="#ffffff" stroke="#ffffff" d="m77.67,73.668c4.963,0 9,-4.037 9,-9l0,-5.333c0,-4.963 -4.037,-9 -9,-9l-60.59,0c-4.963,0 -9,4.037 -9,9l0,5.333c0,4.963 4.037,9 9,9l60.59,0zm-9.045,-17.333l9.045,0c1.654,0 3,1.346 3,3l0,5.333c0,1.654 -1.346,3 -3,3l-9.045,0l0,-11.333zm-18.25,0l12.25,0l0,11.333l-12.25,0l0,-11.333zm-18.25,0l12.25,0l0,11.333l-12.25,0l0,-11.333zm-18.045,8.333l0,-5.333c0,-1.654 1.346,-3 3,-3l9.045,0l0,11.333l-9.045,0c-1.654,0 -3,-1.346 -3,-3z" id="svg_2"/>
        <line fill="none" stroke="#ffffff" stroke-width="5" x1="52.16798" y1="30.41894" x2="3.52052" y2="30.41894" id="svg_3"/>
        <line fill="none" stroke="#ffffff" stroke-width="5" x1="47.18458" y1="81.43945" x2="0.19826" y2="81.43945" id="svg_4"/>
        <line fill="none" stroke="#ffffff" stroke-width="5" x1="49.79494" y1="113.95019" x2="4.23244" y2="113.95019" id="svg_5"/>
    </g>
</svg>