<svg xmlns="http://www.w3.org/2000/svg" width="20" height="24" viewBox="0 0 20 24">
  <metadata><?xpacket begin="﻿" id="W5M0MpCehiHzreSzNTczkc9d"?>
<x:xmpmeta xmlns:x="adobe:ns:meta/" x:xmptk="Adobe XMP Core 5.6-c138 79.159824, 2016/09/14-01:09:01        ">
   <rdf:RDF xmlns:rdf="http://www.w3.org/1999/02/22-rdf-syntax-ns#">
      <rdf:Description rdf:about=""/>
   </rdf:RDF>
</x:xmpmeta>
                                                                                                    
                                                                                                    
                                                                                                    
                                                                                                    
                                                                                                    
                                                                                                    
                                                                                                    
                                                                                                    
                                                                                                    
                                                                                                    
                                                                                                    
                                                                                                    
                                                                                                    
                                                                                                    
                                                                                                    
                                                                                                    
                                                                                                    
                                                                                                    
                                                                                                    
                                                                                                    
                           
<?xpacket end="w"?></metadata>
<defs>
    <style>
      .cls-1 {
        fill: #999;
        fill-rule: evenodd;
      }
    </style>
  </defs>
  <path class="cls-1" d="M165.361,2122.25a2.175,2.175,0,0,0-1.458-.56,2.28,2.28,0,0,0-2.235,2.32,2.341,2.341,0,0,0,.208.97A10.9,10.9,0,0,1,165.361,2122.25Zm4.609,20.53a10.424,10.424,0,0,0,1.69-20.62v-1.95h0.867a0.745,0.745,0,0,0,0-1.42h-5.115a0.745,0.745,0,0,0,0,1.42h0.866v1.95a9.821,9.821,0,0,0-2.4.76,10.007,10.007,0,0,0-3.527,2.76,10.576,10.576,0,0,0-2.372,6.71A10.2,10.2,0,0,0,169.97,2142.78Zm-5.887-16.46a8.256,8.256,0,0,1,1.911-1.49,7.932,7.932,0,0,1,3.976-1.06,8.626,8.626,0,1,1-8.3,8.62A8.774,8.774,0,0,1,164.083,2126.32Zm5.851,5.75v-6.17a5.886,5.886,0,0,1,4.545,2.16" transform="translate(-159.969 -2118.78)"/>
</svg>
