<svg xmlns="http://www.w3.org/2000/svg" width="19" height="24" viewBox="0 0 19 24">
  <metadata><?xpacket begin="﻿" id="W5M0MpCehiHzreSzNTczkc9d"?>
<x:xmpmeta xmlns:x="adobe:ns:meta/" x:xmptk="Adobe XMP Core 5.6-c138 79.159824, 2016/09/14-01:09:01        ">
   <rdf:RDF xmlns:rdf="http://www.w3.org/1999/02/22-rdf-syntax-ns#">
      <rdf:Description rdf:about=""/>
   </rdf:RDF>
</x:xmpmeta>
                                                                                                    
                                                                                                    
                                                                                                    
                                                                                                    
                                                                                                    
                                                                                                    
                                                                                                    
                                                                                                    
                                                                                                    
                                                                                                    
                                                                                                    
                                                                                                    
                                                                                                    
                                                                                                    
                                                                                                    
                                                                                                    
                                                                                                    
                                                                                                    
                                                                                                    
                                                                                                    
                           
<?xpacket end="w"?></metadata>
<defs>
    <style>
      .cls-1 {
        fill: #999;
        fill-rule: evenodd;
      }
    </style>
  </defs>
  <path id="Shape_19_copy" data-name="Shape 19 copy" class="cls-1" d="M169.331,1889.91a6.909,6.909,0,1,0-6.9-6.91A6.9,6.9,0,0,0,169.331,1889.91Zm-2.407-4.18c0.063-.22.122-0.45,0.2-0.68,0.083-.26.151-0.29,0.391-0.16a3.935,3.935,0,0,0,1.3.39,1.758,1.758,0,0,0,.852-0.11,0.668,0.668,0,0,0,.156-1.17,1.9,1.9,0,0,0-.484-0.28,12.289,12.289,0,0,1-1.326-.6,1.882,1.882,0,0,1-1.062-1.8,1.993,1.993,0,0,1,1.448-1.84c0.353-.12.358-0.12,0.358-0.49v-0.38c0-.28.054-0.33,0.332-0.34h0.26c0.592,0,.592,0,0.6.6,0,0.42,0,.42.421,0.48a3.329,3.329,0,0,1,.92.28,0.264,0.264,0,0,1,.176.35c-0.073.26-.142,0.52-0.225,0.77s-0.152.28-.382,0.16a3.061,3.061,0,0,0-1.457-.29,1.328,1.328,0,0,0-.392.08,0.558,0.558,0,0,0-.137.99,2.93,2.93,0,0,0,.631.36,9.95,9.95,0,0,1,1.155.52,2.074,2.074,0,0,1,.67,3.15,2.186,2.186,0,0,1-1.15.74,0.327,0.327,0,0,0-.279.37c0.01,0.21,0,.41,0,0.61a0.26,0.26,0,0,1-.274.29h-0.655a0.27,0.27,0,0,1-.284-0.3c0-.15-0.005-0.3-0.005-0.45,0-.33-0.014-0.34-0.328-0.39a3.95,3.95,0,0,1-1.169-.34C166.87,1886.11,166.841,1886.04,166.924,1885.73Zm9.877,4.75a10.576,10.576,0,0,1-14.52.41h1.331v-1.42h-3.777v3.78h1.419v-1.37a12,12,0,0,0,16.55-.39l0.5-.51-1-1Zm0.607-17.73v1.38a11.985,11.985,0,0,0-16.551.38l-0.5.5,1,1.01,0.5-.51a10.576,10.576,0,0,1,14.52-.41h-1.33v1.43h3.777v-3.78h-1.424Z" transform="translate(-159.844 -1871)"/>
</svg>
